<svg xmlns="http://www.w3.org/2000/svg" xmlns:xlink="http://www.w3.org/1999/xlink" width="500" zoomAndPan="magnify" viewBox="0 0 375 374.999991" height="500" preserveAspectRatio="xMidYMid meet" version="1.0"><defs><g/></defs><rect x="-37.5" width="450" fill="#ffffff" y="-37.499999" height="449.999989" fill-opacity="1"/><rect x="-37.5" width="450" fill="#ffffff" y="-37.499999" height="449.999989" fill-opacity="1"/><g fill="#000000" fill-opacity="1"><g transform="translate(74.848512, 219.962752)"><g><path d="M 2.84375 -62.25 L 8.515625 -62.25 L 8.90625 -61.859375 L 8.90625 -42.671875 C 8.90625 -41.628906 15.5625 -39.929688 28.875 -37.578125 C 35.882812 -35.878906 41.300781 -32.617188 45.125 -27.796875 C 47.207031 -24.429688 48.25 -20.972656 48.25 -17.421875 L 48.25 -15.65625 C 48.25 -9.070312 44.59375 -4.113281 37.28125 -0.78125 C 35.6875 -0.257812 34.316406 0 33.171875 0 L 17.515625 0 C 12.003906 0 7.375 -3.257812 3.625 -9.78125 C 2.84375 -11.96875 2.453125 -13.925781 2.453125 -15.65625 L 2.453125 -16.046875 L 2.84375 -16.4375 L 8.515625 -16.4375 C 8.710938 -16.4375 9.039062 -15.195312 9.5 -12.71875 C 11.582031 -8.539062 14.644531 -6.453125 18.6875 -6.453125 L 32 -6.453125 C 36.632812 -6.453125 39.832031 -9 41.59375 -14.09375 L 41.796875 -16.25 L 41.796875 -16.4375 C 41.796875 -24.851562 35.726562 -30.007812 23.59375 -31.90625 C 13.539062 -33.632812 7.40625 -35.332031 5.1875 -37 C 3.363281 -38.789062 2.453125 -40.421875 2.453125 -41.890625 L 2.453125 -61.859375 Z M 2.84375 -62.25 "/></g></g></g><g fill="#000000" fill-opacity="1"><g transform="translate(125.544779, 219.962752)"><g><path d="M 2.84375 -62.25 L 8.3125 -62.25 L 8.703125 -61.859375 L 8.703125 -0.390625 L 8.3125 0 L 2.84375 0 L 2.453125 -0.390625 L 2.453125 -61.859375 Z M 2.84375 -62.25 "/></g></g></g><g fill="#000000" fill-opacity="1"><g transform="translate(136.701873, 219.962752)"><g><path d="M 2.84375 -62.25 L 8.515625 -62.25 L 8.90625 -61.859375 L 8.90625 -52.84375 L 8.515625 -52.453125 L 2.84375 -52.453125 L 2.453125 -52.84375 L 2.453125 -61.859375 Z M 2.84375 -42.859375 L 8.515625 -42.859375 L 8.90625 -42.46875 L 8.90625 -0.390625 L 8.515625 0 L 2.84375 0 L 2.453125 -0.390625 L 2.453125 -42.46875 Z M 2.84375 -42.859375 "/></g></g></g><g fill="#000000" fill-opacity="1"><g transform="translate(148.054705, 219.962752)"><g><path d="M 17.71875 -47.375 L 32.984375 -47.375 C 38.460938 -47.375 42.960938 -44.957031 46.484375 -40.125 C 47.660156 -38.269531 48.25 -36.507812 48.25 -34.84375 L 48.25 -33.28125 C 48.25 -29.164062 42.507812 -26.554688 31.03125 -25.453125 C 28.582031 -25.453125 23.6875 -24.40625 16.34375 -22.3125 C 11.382812 -20.414062 8.90625 -17.476562 8.90625 -13.5 L 8.90625 -13.109375 C 8.90625 -10.046875 11.515625 -7.894531 16.734375 -6.65625 L 18.890625 -6.453125 L 31.8125 -6.453125 C 36.925781 -6.453125 40.253906 -8.476562 41.796875 -12.53125 C 41.796875 -13.175781 41.925781 -13.5 42.1875 -13.5 L 47.859375 -13.5 L 48.25 -13.109375 L 48.25 -12.53125 C 48.25 -8.03125 45.25 -4.3125 39.25 -1.375 C 37.226562 -0.457031 35.140625 0 32.984375 0 L 17.71875 0 C 12.238281 0 7.734375 -2.414062 4.203125 -7.25 C 3.035156 -9.101562 2.453125 -10.863281 2.453125 -12.53125 L 2.453125 -34.84375 C 2.453125 -39.34375 5.453125 -43.0625 11.453125 -46 C 13.472656 -46.914062 15.5625 -47.375 17.71875 -47.375 Z M 8.90625 -34.25 L 8.90625 -25.84375 L 9.109375 -25.84375 C 13.640625 -28.550781 18.332031 -30.179688 23.1875 -30.734375 C 32.582031 -32.203125 38.785156 -33.375 41.796875 -34.25 C 41.796875 -37.320312 39.179688 -39.476562 33.953125 -40.71875 L 31.8125 -40.90625 L 18.890625 -40.90625 C 13.867188 -40.90625 10.609375 -39.015625 9.109375 -35.234375 Z M 8.90625 -34.25 "/></g></g></g><g fill="#000000" fill-opacity="1"><g transform="translate(198.750973, 219.962752)"><g><path d="M 2.84375 -42.671875 L 8.515625 -42.671875 C 9.617188 -41.628906 12.554688 -40.648438 17.328125 -39.734375 C 37.941406 -37.160156 48.25 -29.785156 48.25 -17.609375 L 48.25 -0.390625 L 47.859375 0 L 42.1875 0 L 41.796875 -0.390625 L 41.796875 -16.640625 C 41.796875 -23.265625 38.007812 -27.765625 30.4375 -30.140625 C 26.625 -31.285156 19.835938 -32.785156 10.078125 -34.640625 C 10.078125 -34.898438 9.6875 -35.03125 8.90625 -35.03125 L 8.90625 -0.390625 L 8.515625 0 L 2.84375 0 L 2.453125 -0.390625 L 2.453125 -42.28125 Z M 2.84375 -42.671875 "/></g></g></g><g fill="#000000" fill-opacity="1"><g transform="translate(249.447241, 219.962752)"><g><path d="M 42.1875 -62.25 L 47.859375 -62.25 L 48.25 -61.859375 L 48.25 -41.890625 C 48.25 -37.023438 41.53125 -33.828125 28.09375 -32.296875 C 21.59375 -30.828125 17.085938 -29.257812 14.578125 -27.59375 C 10.796875 -25.082031 8.90625 -21.363281 8.90625 -16.4375 L 8.90625 -16.25 C 8.90625 -11.519531 11.515625 -8.320312 16.734375 -6.65625 L 18.6875 -6.453125 L 32 -6.453125 C 36.570312 -6.453125 39.707031 -8.867188 41.40625 -13.703125 C 41.695312 -15.523438 41.957031 -16.4375 42.1875 -16.4375 L 47.859375 -16.4375 L 48.25 -16.046875 L 48.25 -15.65625 C 48.25 -9.070312 44.59375 -4.113281 37.28125 -0.78125 C 35.6875 -0.257812 34.316406 0 33.171875 0 L 17.515625 0 C 12.003906 0 7.375 -3.257812 3.625 -9.78125 C 2.84375 -11.96875 2.453125 -13.925781 2.453125 -15.65625 L 2.453125 -17.421875 C 2.453125 -26.816406 8.320312 -33.34375 20.0625 -37 L 39.828125 -41.296875 C 41.140625 -42.015625 41.796875 -42.472656 41.796875 -42.671875 L 41.796875 -61.859375 Z M 42.1875 -62.25 "/></g></g></g></svg>